<svg xmlns="http://www.w3.org/2000/svg" xmlns:xlink="http://www.w3.org/1999/xlink" viewBox="0 0 789.57 997"><defs><style>.cls-1{fill:none;}.cls-2{fill:#9c62b7;}.cls-3{fill:#c8a0d9;}.cls-4{fill:#fff;}.cls-5{fill:#623c73;}.cls-6{fill:#8648a3;}.cls-7{fill:#b6c622;}.cls-8{fill:#93991a;}.cls-9{fill:#231f20;}.cls-10{clip-path:url(#clip-path);}.cls-11{clip-path:url(#clip-path-2);}</style><clipPath id="clip-path" transform="translate(-36.19 -33.13)"><rect class="cls-1" x="68.22" y="152.63" width="366.04" height="834.13"/></clipPath><clipPath id="clip-path-2" transform="translate(-36.19 -33.13)"><rect class="cls-1" x="427.34" y="152.63" width="366.04" height="834.13"/></clipPath></defs><g id="Layer_3" data-name="Layer 3"><path class="cls-2" d="M825.76,647.14c-11.24-49.33-32.68-94.21-61.75-131.62,4.51-105.15,11.48-215.39-25.63-302.78-17.13-65.22-38-125.4-86.36-179.61,10.41,24.74,26.3,66.87,35.42,103.42a238.86,238.86,0,0,0-35.42-29C676,292.81,606.22,256.32,557.82,329a132.07,132.07,0,0,0-10.29,18.45,377.38,377.38,0,0,0-233.11,0A132.16,132.16,0,0,0,304.12,329c-48.4-72.71-118.13-36.22-94.19-221.47a239.47,239.47,0,0,0-35.43,29c9.13-36.55,25-78.68,35.43-103.42-48.39,54.21-69.24,114.39-86.37,179.61-37.1,87.39-30.14,197.63-25.63,302.78-29.06,37.41-50.5,82.29-61.74,131.62A144.19,144.19,0,0,1,69,623.53c-26.78,92-4.37,196.69,60.61,279.27a141.51,141.51,0,0,1,9.08-63.56c42.29,94.84,133.47,166.47,244.79,190.89C354.39,1000,342.77,966.9,338.05,930a378.91,378.91,0,0,0,185.84,0c-4.71,36.9-16.33,70-45.41,100.13,111.33-24.42,202.5-96.05,244.8-190.89a141.64,141.64,0,0,1,9.08,63.56c65-82.58,87.39-187.3,60.61-279.27A144.41,144.41,0,0,1,825.76,647.14Z" transform="translate(-36.19 -33.13)"/><path class="cls-3" d="M431,753.19c0,22.55-33.2,49.23-65.51,49.23s-55.12-21.43-55.12-44,26.19-40.83,58.5-40.83S431,730.65,431,753.19Z" transform="translate(-36.19 -33.13)"/><path class="cls-3" d="M431.26,753.19c0,22.55,33.2,49.23,65.51,49.23s55.12-21.43,55.12-44-26.19-40.83-58.5-40.83S431.26,730.65,431.26,753.19Z" transform="translate(-36.19 -33.13)"/><path class="cls-4" d="M357.15,838.67c-8.65-19.07-16.52-33.83-16.52-38.52,4.26-3.41,29.42,4.07,28.65,6C365.45,816.46,365.94,814.89,357.15,838.67Z" transform="translate(-36.19 -33.13)"/><path class="cls-5" d="M367.34,798.76c-42.82-.47-53.73-19.28-56.76-38.43-3.09,28.68,24.63,45.77,58.7,45.77S431,789.56,431,753.19a70.12,70.12,0,0,0-.45-7.85C423.34,771.19,407.65,799.21,367.34,798.76Z" transform="translate(-36.19 -33.13)"/><path class="cls-4" d="M492.66,806.1c-.77-1.88,24.39-9.36,28.66-6,0,4.69-7.87,19.45-16.52,38.52C496,814.89,496.49,816.46,492.66,806.1Z" transform="translate(-36.19 -33.13)"/><path class="cls-5" d="M494.6,798.76c42.83-.47,53.74-19.28,56.77-38.43,3.09,28.68-24.64,45.77-58.71,45.77S431,789.56,431,753.19a70.12,70.12,0,0,1,.46-7.85C438.61,771.19,454.3,799.21,494.6,798.76Z" transform="translate(-36.19 -33.13)"/><path class="cls-5" d="M472.13,711.92c0,16.61-19.46,24.29-41.16,38.46-21.2-14.17-41.15-21.85-41.15-38.46s18.43-14,41.15-14S472.13,695.31,472.13,711.92Z" transform="translate(-36.19 -33.13)"/><path class="cls-6" d="M572.38,855.14c16.88,18.78,10.82,84.62-138.12,84.62-127,0-140.29-31.55-160.91-83.83,62.77,27.93,55.46,65.9,160.91,68.89C542.32,916.51,519.09,880.57,572.38,855.14Z" transform="translate(-36.19 -33.13)"/></g><g id="Layer_8" data-name="Layer 8"><path class="cls-4" d="M239.47,574.63c12-10,39.42-34.2,84-15.93,19.4,7.95,52.19,31.62,63.65,80.46-18,8-53.28,34.14-94.12,16.15C250.79,639.93,242.64,614.46,239.47,574.63Z" transform="translate(-36.19 -33.13)"/><path class="cls-4" d="M239.47,574.63c12-10,39.42-34.2,84-15.93,19.4,7.95,52.19,31.62,63.65,80.46-18,8-53.28,34.14-94.12,16.15C250.79,639.93,242.64,614.46,239.47,574.63Z" transform="translate(-36.19 -33.13)"/><path class="cls-7" d="M242.71,599c-1.5-7.45,8-33.86,16.94-38.61,14.88-7.93,36.05-13.11,63.91-1.69,15.55,6.38,39.73,22.87,54.61,54.35,3.67,7.77-1.05,31.23-7.52,34.52-19.44,9.88-46.93,21.23-77.56,7.74C260.22,643.33,248,625.24,242.71,599Z" transform="translate(-36.19 -33.13)"/><path class="cls-8" d="M259.65,560.39c14.88-7.93,36.05-13.11,63.91-1.69,15.55,6.38,39.73,22.87,54.61,54.35,3.67,7.77-45.59,13.49-76.22,0C269.08,601.07,250.72,565.14,259.65,560.39Z" transform="translate(-36.19 -33.13)"/><path class="cls-9" d="M348.38,591.43c1.63,30.88-14.15,51.22-40.67,47.23-22.35-3.36-35.66-33.43-25.5-77.33C300,556.67,335,568,348.38,591.43Z" transform="translate(-36.19 -33.13)"/><circle class="cls-4" cx="306.67" cy="565.87" r="14.05"/><path class="cls-4" d="M569,655.31c-40.85,18-76.11-8.19-94.13-16.15,11.47-48.84,44.26-72.51,63.66-80.46,44.56-18.27,72,5.95,84,15.93C619.31,614.46,611.16,639.93,569,655.31Z" transform="translate(-36.19 -33.13)"/><path class="cls-7" d="M569,655.31c-30.63,13.49-58.13,2.14-77.56-7.74-6.48-3.29-11.2-26.75-7.53-34.52,14.88-31.48,39.06-48,54.62-54.35,27.85-11.42,49-6.24,63.9,1.69,8.93,4.75,18.44,31.16,16.94,38.61C614,625.24,601.82,643.33,569,655.31Z" transform="translate(-36.19 -33.13)"/><path class="cls-8" d="M556,617c-30.63,13.5-75.81,3.85-72.14-3.92,14.88-31.48,39.06-48,54.62-54.35,27.85-11.42,49-6.24,63.9,1.69C611.32,565.14,588.88,605,556,617Z" transform="translate(-36.19 -33.13)"/><path class="cls-9" d="M579.73,561.33c10.16,43.9-3.14,74-25.49,77.33-26.53,4-42.3-16.35-40.68-47.23C527,568,562,556.67,579.73,561.33Z" transform="translate(-36.19 -33.13)"/><circle class="cls-4" cx="547.01" cy="550.62" r="14.05"/><circle class="cls-4" cx="554.03" cy="565.87" r="7.02"/><circle class="cls-4" cx="316.12" cy="579.92" r="7.02"/></g><g id="Layer_7" data-name="Layer 7"><path class="cls-6" d="M176,585c-56.3-31.68,146.39-175.7,139.59-237.32-.62-5.63-77.21,62.73-141.19,98.74-67.45,43-117.61,115.22-137.11,200.77a144.41,144.41,0,0,1,32.79-23.61c-26.77,92-4.37,196.69,60.61,279.27a141.64,141.64,0,0,1,9.08-63.56c42.3,94.84,133.48,166.47,244.8,190.89-40.7-42.2-47.21-90.15-48.42-146.27-.56-25.44-62.31-34.08-63.38-63.12C164.56,817.75,175.65,599.63,176,585Z" transform="translate(-36.19 -33.13)"/><path class="cls-6" d="M685.62,585c56.3-31.68-146.39-175.7-139.59-237.32.62-5.63,77.21,62.73,141.19,98.74,67.45,43,117.61,115.22,137.1,200.77a144.14,144.14,0,0,0-32.78-23.61c26.77,92,4.37,196.69-60.61,279.27a141.5,141.5,0,0,0-9.09-63.56c-42.29,94.84-133.47,166.47-244.79,190.89,40.7-42.2,47.21-90.15,48.42-146.27.56-25.44,62.31-34.08,63.38-63.12C697,817.75,685.94,599.63,685.62,585Z" transform="translate(-36.19 -33.13)"/></g><g id="Layer_4" data-name="Layer 4"><g class="cls-10"><path class="cls-5" d="M316.42,434.74c4.1.52,1.6,4.5.28,6.54A96.25,96.25,0,0,0,308,471.8c-.73,9.28,1.57,18.42,2.35,27.59-.34,9.73-11.69,5.1-17.73,5.33-8.93.12-17.87,1.91-26.21,3.31-2.55.68-4.28-2.59-1.77-3.84a6.68,6.68,0,0,0,3.17-3.19c3-7.63,7.06-15.75,16.54-15.21C285.86,465.32,300.18,446.21,316.42,434.74Z" transform="translate(-36.19 -33.13)"/><path class="cls-5" d="M282.54,773.75c3.44,14.57-54.06,21.5-65,13.67-4.42-2.21-8.93-10.75-.41-9,11.73,3.45,24.63,4.87,36.44,2.23C263.12,778.52,281.69,771.12,282.54,773.75Z" transform="translate(-36.19 -33.13)"/><path class="cls-5" d="M288.61,734.09c.32,15-50,11.42-65.46,8.11-14.32-3.08-33.27-7-39-22.46-2.92-4.25-13.68-10.59-9.05-16,3.23-1.13,14.57,15,20.74,17.72C224.63,734.61,258.53,728.27,288.61,734.09Z" transform="translate(-36.19 -33.13)"/><path class="cls-5" d="M340.3,727.86c5.75-.8,10.47,8,6.66,12.25.39,3.18-5.75,3-7.89,3.25C330,741.54,331.42,728.79,340.3,727.86Z" transform="translate(-36.19 -33.13)"/><path class="cls-5" d="M331.38,754.57c1.85,3.61-1,10-5.09,10.58-1.09.17-2.31.33-3.15-.62-2.18-2.22-2.3-6.1-.85-8.76C324,752.7,329.31,750.94,331.38,754.57Z" transform="translate(-36.19 -33.13)"/><path class="cls-5" d="M358.91,779.36c.56,1.76-2.67,1.66-3.76,1.63-2.75-.16-5.76-.71-7.7-2.84-2.15-2.48-3.79-6.29-1.86-9.34,3-4.2,9.37-3,13-.37,3.87,3.13.12,8.17-3,10.21.73.13,1.46.26,2.2.36a.59.59,0,1,1,1.13.35Z" transform="translate(-36.19 -33.13)"/><path class="cls-5" d="M374.28,746.89a1.71,1.71,0,0,1,.56,2.64c-1.62,1.18-4,.93-5.86.44-3.46-1.18-5.5-4.64-6.18-8.08-.6-2-.62-4.72,1.4-6,3.2-1.78,7.14.36,9.71,2.41C376.91,740.72,376.77,744.16,374.28,746.89Z" transform="translate(-36.19 -33.13)"/><path class="cls-5" d="M387.54,776.55c1.28,2.19-.33,4.78-2,6.21-2.26,1.21-5,2.39-7.54,1.35-3.19-1.28-5.08-5.55-3-8.53s5.95-2.43,8.83-1.34C385.22,774.73,386.75,775.19,387.54,776.55Z" transform="translate(-36.19 -33.13)"/><path class="cls-5" d="M405.46,758.07c.8.06,1.52,1,.93,1.7s-1.93.65-2.67.73a23.59,23.59,0,0,1-5,0c-4.3-1-8.89-9.56-3.19-11.6,4.09-1,8.3,1.83,10,5.49A3.48,3.48,0,0,1,405.46,758.07Z" transform="translate(-36.19 -33.13)"/><path class="cls-5" d="M395,659.51c2.38-4.39,9-2.3,7.84,2.71-1.58,3.57-3.64,6.93-4.88,10.67-2.18,6.22-3.92,27.45-5.13,27-2.87-1.24-3.05-5-3.62-7.72C387.56,681,390.3,669.64,395,659.51Z" transform="translate(-36.19 -33.13)"/><path class="cls-5" d="M205.15,243.85c.13,3.12-3.3,4.54-5.19,2-2.83-2.37-8.81-11.92-11.54-14.36-20-16.44-38.74-31.47-37.23-58.36.22-4,2.42-16.06,5.29-19.09,2.24-1.15,3.69,1.13,3.5,3.19-.47,7.65,2.45,14.7,6.28,21.15,20.47-42.62,13.49,17.18,19.44,30.67C189.24,222.25,202.5,230.57,205.15,243.85Z" transform="translate(-36.19 -33.13)"/><path class="cls-5" d="M423.15,862c8.52,3,.09,14-5.82,14.57-15.59,5.9-41.06-5.59-45.47-20.41,7.48-3.26,19.38,4.15,28.46,4.65C402,848.49,416,861.21,423.15,862Z" transform="translate(-36.19 -33.13)"/><path class="cls-5" d="M179.28,520.78c34.2-18.42,65.31-42.14,77-72.92-13.07,12.16-41,39.65-56.3,45-2.88-9.76-2.22-15.74.66-21.51-19.45-.72-58.55,40.16-63.41,65.92a.06.06,0,0,0,.09,0c8.55-6.5,21.2-28.72,41.6-34,3.11,5.79,1.13,15.38.38,17.53m20.54-41.21h0C199.69,479.6,199.8,479.49,199.82,479.57Z" transform="translate(-36.19 -33.13)"/><path class="cls-5" d="M323.35,982.69c-28.4-11-43.31-35.56-53.13-40,15.9,52.05-50.16-42.5-58.14-49.34,1.29,9.41.73,9.17,3.4,20.83-22.95-17.64-54.41-73.07-55.52-95.92,11.62,20.43,20.93,31.73,33.24,38.54-4.28-30.09,42.83,37.29,55.5,51.54-.55-3.29-4.77-20.13,1.93-20.93C258.14,892.47,302.6,959.71,323.35,982.69Z" transform="translate(-36.19 -33.13)"/><path class="cls-5" d="M120.81,540.71c-7.31,14.19-17.29,26.16-31.48,30.82.22-4.67,2.64-3.47,3.77-10.2C80.24,567.09,70,596.21,69.79,606.4c5.6-4,5.58-14.26,23.31-23.34C94,588.87,92,587.09,92,594,103.35,583.16,122.37,556.55,120.81,540.71ZM75.39,602.47l-.07,0,.07-.1Z" transform="translate(-36.19 -33.13)"/></g><path class="cls-5" d="M345.17,557.78c45.22,30.37,49,78.26,52,87.71-1.67,3-1.28,4.09-3.93,6.51-9.31-2.23-50.94,22.61-85.8,16-27-5.14-90.81-32.63-85.29-100.65-18.66,1.2-30,8-39.95,14.86.23,21.19,42.85,81.22,71.07,96,17.62,14,41.62,16,60.15,27.19-11.5,18.85-45.75,3-61.73-6C210.39,680,171.8,593,151.41,579.73c-22,10.51-16.41,55.65-24.58,84-3.83-9.43-2.47-7.09-6.09-12-5,11.55-11.45,24.85-10.57,47.91,6-2.44,8.17-8.57,10.78-8.6-10.56,31.21-7.9,90.94-6.57,147.6-15.77-25.2-19.87-84.52-21.95-113.75-4,10.67-4.31,15.94-9.53,33.94-8.42-39-1.3-112.76,6.91-123.53,24.39,48.4,8.21-34,66.25-91.51-1.13,10.78-3.32,16.48,2.44,23.72,8.43,2.16,18.85,1,40.58-10C271.18,516.47,333.48,549.93,345.17,557.78Zm41.43,81.38C373.89,576.8,303.05,517.88,239,574.63,239,655.77,320.56,684.37,386.6,639.16Z" transform="translate(-36.19 -33.13)"/><path class="cls-5" d="M282.43,434.74s23.94-55.86,57.42-64.95-2.22,9.53-4,13.74,10.42.89,11.53,2S282.65,432.3,282.43,434.74Z" transform="translate(-36.19 -33.13)"/><g class="cls-11"><path class="cls-5" d="M545.18,434.74c-4.1.52-1.6,4.5-.28,6.54,4.7,9.52,7.34,20.09,8.65,30.52.73,9.28-1.56,18.42-2.35,27.59.34,9.73,11.69,5.1,17.74,5.33,8.93.12,17.87,1.91,26.21,3.31,2.55.68,4.28-2.59,1.76-3.84a6.66,6.66,0,0,1-3.16-3.19c-3-7.63-7.06-15.75-16.55-15.21C575.73,465.32,561.41,446.21,545.18,434.74Z" transform="translate(-36.19 -33.13)"/><path class="cls-5" d="M435.62,343.51c33.76,69-14.83,32.33,44.39,76.62-55.25-23.44-7.38,27.13-.19,47.94-15.66-6.22-6.37,18.82-2.85,24.9,4.54,7.84,8.2,17.48,9.46,32.85,8.17-13.32,7.72-31,5.39-52,6,1.33,6.65,5.65,13.39,12.3,1.24-13.71-13.65-33-21-46.38,5.92-1.17,13.57.49,21,5.48,2.27-10.53-6.92-24.52-11.61-31.58-7.09-13.34-13.44-13.86-22.73-25.37C484.46,374,453.45,351.72,435.62,343.51Z" transform="translate(-36.19 -33.13)"/><path class="cls-5" d="M579.06,773.75c-3.45,14.57,54.06,21.5,65,13.67,4.41-2.21,8.93-10.75.41-9-11.74,3.45-24.63,4.87-36.44,2.23C598.47,778.52,579.91,771.12,579.06,773.75Z" transform="translate(-36.19 -33.13)"/><path class="cls-5" d="M573,734.09c-.32,15,50,11.42,65.47,8.11,14.32-3.08,33.27-7,39-22.46,2.91-4.25,13.67-10.59,9-16-3.23-1.13-14.57,15-20.74,17.72C637,734.61,603.06,728.27,573,734.09Z" transform="translate(-36.19 -33.13)"/><path class="cls-5" d="M520.47,729.77c-5.75-.81-10.47,8-6.66,12.25-.39,3.18,5.75,3,7.89,3.25C530.75,743.45,529.35,730.7,520.47,729.77Z" transform="translate(-36.19 -33.13)"/><path class="cls-5" d="M530.27,753.75c-1.85,3.6,1,10,5.08,10.57,1.1.17,2.31.34,3.16-.61,2.17-2.23,2.3-6.1.85-8.76C537.63,751.88,532.34,750.12,530.27,753.75Z" transform="translate(-36.19 -33.13)"/><path class="cls-5" d="M502.74,778.54c-.56,1.76,2.67,1.66,3.75,1.62,2.76-.15,5.77-.7,7.71-2.84,2.14-2.47,3.79-6.28,1.85-9.34-3-4.19-9.36-3-13-.36-3.87,3.13-.12,8.16,3,10.21-.73.13-1.46.26-2.2.36a.61.61,0,0,0-.57-.43A.6.6,0,0,0,502.74,778.54Z" transform="translate(-36.19 -33.13)"/><path class="cls-5" d="M486.31,748.58a1.71,1.71,0,0,0-.56,2.64c1.62,1.17,4,.93,5.86.43,3.46-1.17,5.5-4.64,6.18-8.07.6-2,.62-4.73-1.4-6-3.2-1.79-7.14.36-9.71,2.41C483.68,742.41,483.82,745.84,486.31,748.58Z" transform="translate(-36.19 -33.13)"/><path class="cls-5" d="M474.1,775.73c-1.27,2.19.34,4.77,2,6.21,2.25,1.21,5,2.39,7.54,1.35,3.18-1.28,5.08-5.55,3-8.54s-5.94-2.42-8.82-1.33C476.42,773.9,474.9,774.37,474.1,775.73Z" transform="translate(-36.19 -33.13)"/><path class="cls-5" d="M456.81,760.35c-.8.06-1.53,1-.94,1.7s1.94.65,2.68.73a23.49,23.49,0,0,0,5,0c4.31-1,8.9-9.55,3.2-11.6-4.1-1-8.3,1.83-10,5.49A3.48,3.48,0,0,0,456.81,760.35Z" transform="translate(-36.19 -33.13)"/><path class="cls-5" d="M466.57,659.51c-2.38-4.39-9-2.3-7.84,2.71,1.57,3.57,3.63,6.93,4.87,10.67,2.19,6.22,3.93,27.45,5.13,27,2.88-1.24,3-5,3.63-7.72C474,681,471.3,669.64,466.57,659.51Z" transform="translate(-36.19 -33.13)"/><path class="cls-5" d="M656.45,243.85c-.13,3.12,3.3,4.54,5.19,2,2.82-2.37,8.8-11.92,11.54-14.36,20-16.44,38.74-31.47,37.23-58.36-.23-4-2.42-16.06-5.29-19.09-2.24-1.15-3.7,1.13-3.51,3.19.47,7.65-2.44,14.7-6.27,21.15-20.47-42.62-13.49,17.18-19.44,30.67C672.35,222.25,659.1,230.57,656.45,243.85Z" transform="translate(-36.19 -33.13)"/><path class="cls-5" d="M438.45,862c-8.52,3-.09,14,5.81,14.57,15.59,5.9,41.07-5.59,45.47-20.41-7.48-3.26-19.38,4.15-28.46,4.65C459.59,848.49,445.62,861.21,438.45,862Z" transform="translate(-36.19 -33.13)"/><path class="cls-5" d="M431.38,542.08c-2.39,5.24-6.4,15.59-2.41,35.21,4.39-7.59,3-5.71,7.63-14.91,12-16.73,28.84-32.79,23-55.07.27-5.23-3.89-27.53-11.38-24.64-4.4,4.64.35,12.67-1.06,18.49C448.44,517.53,442.1,530.36,431.38,542.08Z" transform="translate(-36.19 -33.13)"/><path class="cls-5" d="M682.31,520.78c-.74-2.15-2.73-11.74.39-17.53,20.39,5.32,33,27.54,41.6,34a0,0,0,0,0,.08,0c-4.85-25.76-44-66.64-63.41-65.92,2.88,5.77,3.55,11.75.67,21.51-15.3-5.32-43.23-32.81-56.3-45,11.66,30.78,42.77,54.5,77,72.92m-20.54-41.21c0-.05,0-.1,0,0C661.8,479.49,661.9,479.6,661.77,479.57Z" transform="translate(-36.19 -33.13)"/><path class="cls-5" d="M538.24,982.69c28.4-11,43.31-35.56,53.13-40-15.9,52.05,50.17-42.5,58.15-49.34-1.29,9.41-.73,9.17-3.4,20.83,23-17.64,54.41-73.07,55.51-95.92C690,838.67,680.7,850,668.39,856.78c4.28-30.09-42.82,37.29-55.49,51.54.55-3.29,4.77-20.13-1.93-20.93C603.45,892.47,559,959.71,538.24,982.69Z" transform="translate(-36.19 -33.13)"/><path class="cls-5" d="M769.55,594c0-6.91-1.94-5.13-1.06-10.94,17.74,9.08,17.71,19.33,23.32,23.34-.2-10.19-10.46-39.31-23.32-45.07,1.14,6.73,3.55,5.53,3.77,10.2-14.19-4.66-24.16-16.63-31.48-30.82C739.23,556.55,758.25,583.16,769.55,594Zm16.65,8.39.08.1-.07,0S786.2,602.42,786.2,602.39Z" transform="translate(-36.19 -33.13)"/></g><path class="cls-5" d="M661.57,558.21c21.72,11,32.15,12.12,40.57,10,5.77-7.24,3.58-12.94,2.44-23.72,58,57.49,41.87,139.91,66.25,91.51,8.22,10.77,15.34,84.51,6.91,123.53-5.22-18-5.58-23.27-9.52-33.94-2.08,29.23-6.18,88.55-22,113.75,1.33-56.66,4-116.39-6.56-147.6,2.6,0,4.79,6.16,10.77,8.6.89-23.06-5.54-36.36-10.56-47.9-3.63,4.89-2.26,2.55-6.1,12-8.17-28.37-2.62-73.51-24.57-84-20.4,13.3-59,100.29-100.33,119.64-16,9-50.23,24.83-61.73,6,18.53-11.17,42.54-13.21,60.16-27.19,28.22-14.77,70.84-74.8,71.06-96-9.95-6.87-21.28-13.65-39.94-14.85,5.51,68-58.33,95.5-85.29,100.65-34.86,6.65-76.49-18.2-85.8-16-2.65-2.42-2.27-3.46-3.94-6.5,3.05-9.46,6.82-57.34,52.05-87.72C527.16,550.57,589.46,517.11,661.57,558.21Zm-39.87,17c-64.1-56.75-134.94,2.18-147.65,64.53C540.09,685,621.7,656.4,621.7,575.26Z" transform="translate(-36.19 -33.13)"/><path class="cls-5" d="M578.17,434.74s-23.95-55.86-57.42-64.95,2.22,9.53,4,13.74-10.42.89-11.53,2S578,432.3,578.17,434.74Z" transform="translate(-36.19 -33.13)"/></g><g id="Layer_9" data-name="Layer 9"><path class="cls-5" d="M422.34,347.3c-33.76,69,14.83,32.33-44.39,76.62,55.25-23.44,7.38,27.13.19,47.93,15.66-6.21,6.36,18.82,2.85,24.9-4.54,7.84-8.2,17.49-9.46,32.86-8.18-13.33-7.72-31-5.39-51.95-6,1.33-6.65,5.65-13.39,12.3-1.25-13.71,13.65-33,21-46.38-5.92-1.17-13.57.49-21,5.48-2.27-10.53,6.92-24.53,11.61-31.58,7.09-13.34,13.44-13.86,22.73-25.38C373.5,377.83,404.51,355.5,422.34,347.3Z" transform="translate(-36.19 -33.13)"/><path class="cls-5" d="M426.58,545.87c2.39,5.24,6.4,15.59,2.41,35.21-4.39-7.6-3.05-5.71-7.63-14.91-12-16.73-28.84-32.79-23.05-55.07-.27-5.23,3.89-27.53,11.38-24.65,4.4,4.64-.35,12.68,1.06,18.49C409.52,521.32,415.86,534.15,426.58,545.87Z" transform="translate(-36.19 -33.13)"/></g><g id="Layer_6" data-name="Layer 6"><path class="cls-3" d="M251.24,362.7c-1.56,22.84-74.76,79.2-98.31,83.61-19.27,1.53,18.81-25.36,17.94-34.39-58.16,3.35-23.62-11.83,3.64-27.92-50.72-6.16-37.95-16,1.56-27.72-18.13-10.43-62.2-30.66-14.31-34.58h-.37c8.15-.35,16.17,1.16,24.17,2.51-29.37-27.25-42.34-38.64,9-26.77-8.22-10.95-25.39-25.49-30.08-33.4-5.83-9.82,19.92-3.25,32.2,6.69C215.87,286.26,249.21,352.2,251.24,362.7Z" transform="translate(-36.19 -33.13)"/><path class="cls-3" d="M288.28,826c-.55,15.26-32.81,42.82-44.54,22.93-3.44-3.76,5.61-7.73,2-11.3-1.78-1.49-15.68-4.71-15.3-7.32.54-4.24,17.92-9.17,18.77-3.47C260.34,829.83,286.3,810.1,288.28,826Z" transform="translate(-36.19 -33.13)"/><path class="cls-3" d="M406.69,620.85c-5.63-63.49-72.74-88.59-69.44-159-3.51-30.35-26.56,42.59-6,63.33-27.72-8.84-53.52-10.84-78.53-.1-7-8.73,18.77-42.65,6.81-40.43-6.93,9.26-12.82,19.65-18.5,29.81-6.45,10.39-9.23,10.5-18.24,19.93-5.94,6.23-15.29,14.3.34,10.31,13.41-2.21,69.83-19.29,117.05,10.64,31.2,20.09,51.83,55.87,57,90.15C398,650.75,406.51,625.15,406.69,620.85Z" transform="translate(-36.19 -33.13)"/><path class="cls-3" d="M382.75,661.5c-4.07-8.49-19.51-1.25-26.36,1.25-30.55,11.16-51.54,5.52-78.16-4.89C247.86,646,219.8,606.78,221.86,575.3c1-3.94-22.55,5.7-23.34,9.65,7.65,2.34,9.31,1.65,12.79,16.62,11,28.22,25.23,55.53,52.13,73.8,15.48,10.51,65.4,24.92,92.95,12.32C366.67,683,388.17,675.6,382.75,661.5Z" transform="translate(-36.19 -33.13)"/><path class="cls-3" d="M206.58,752.55c-22-5.66-30-11.29-44.84-17.5-3.38-.29-11.83-10.57-14-2.63-3.47,12.92,4.47,11.52,3.52,17.82,1.19,9.66-8.18,23.63,7.69,23.64C167.25,775.69,246.07,758.53,206.58,752.55Zm-59.74-15.41a2.26,2.26,0,0,1-.11-.22,3.89,3.89,0,0,0,.35.58Z" transform="translate(-36.19 -33.13)"/><path class="cls-3" d="M210.9,696.78c-19-8.42-32.66-28.36-41.7-48.29-2.57-6.18-4.77-14.2-10.44-18.07-13.26,2.21-1.37,24.06-9,31.82-7.08,7.17-.23,13.62,3.56,15.81C168.59,676.7,209.8,715.51,210.9,696.78Z" transform="translate(-36.19 -33.13)"/><path class="cls-3" d="M609.42,362.7c1.56,22.84,74.76,79.2,98.31,83.61,19.27,1.53-18.81-25.36-17.94-34.39,58.15,3.35,23.61-11.83-3.64-27.92,50.72-6.16,38-16-1.56-27.72,18.13-10.43,62.2-30.66,14.31-34.58h.37c-8.15-.35-16.17,1.16-24.17,2.51,29.36-27.25,42.34-38.64-9-26.77,8.22-10.95,25.39-25.49,30.08-33.4,5.83-9.82-19.92-3.25-32.2,6.69C644.79,286.26,611.45,352.2,609.42,362.7Z" transform="translate(-36.19 -33.13)"/><path class="cls-3" d="M572.38,826c.55,15.26,32.8,42.82,44.54,22.93,3.44-3.76-5.61-7.73-2-11.3,1.78-1.49,15.68-4.71,15.3-7.32-.54-4.24-17.92-9.17-18.77-3.47C600.31,829.83,574.36,810.1,572.38,826Z" transform="translate(-36.19 -33.13)"/><path class="cls-3" d="M454,620.85c5.63-63.49,72.74-88.59,69.44-159,3.5-30.35,26.56,42.59,6,63.33,27.72-8.84,53.52-10.84,78.53-.1,7-8.73-18.78-42.65-6.81-40.43,6.93,9.26,12.82,19.65,18.5,29.81,6.45,10.39,9.23,10.5,18.24,19.93,5.94,6.23,15.29,14.3-.34,10.31-13.41-2.21-69.83-19.29-117,10.64-31.2,20.09-51.83,55.87-57,90.15C462.65,650.75,454.15,625.15,454,620.85Z" transform="translate(-36.19 -33.13)"/><path class="cls-3" d="M477.91,661.5c4.07-8.49,19.5-1.25,26.36,1.25,30.55,11.16,51.54,5.52,78.16-4.89,30.36-11.87,58.43-51.08,56.37-82.56-1-3.94,22.55,5.7,23.34,9.65-7.65,2.34-9.31,1.65-12.8,16.62-11,28.22-25.22,55.53-52.12,73.8-15.48,10.51-65.41,24.92-93,12.32C494,683,472.49,675.6,477.91,661.5Z" transform="translate(-36.19 -33.13)"/><path class="cls-3" d="M701.67,773.88c15.87,0,6.49-14,7.68-23.64-.94-6.3,7-4.9,3.53-17.82-2.13-7.94-10.58,2.34-14,2.63-14.82,6.21-22.81,11.84-44.84,17.5C614.59,758.53,693.41,775.69,701.67,773.88Zm11.91-36.38a3.89,3.89,0,0,0,.35-.58c0,.07-.07.15-.11.22Z" transform="translate(-36.19 -33.13)"/><path class="cls-3" d="M707.37,678.05c3.79-2.19,10.64-8.64,3.56-15.81-7.67-7.76,4.23-29.61-9-31.82-5.67,3.87-7.87,11.89-10.44,18.07-9,19.93-22.67,39.87-41.7,48.29C650.86,715.51,692.07,676.7,707.37,678.05Z" transform="translate(-36.19 -33.13)"/></g></svg>